<svg xmlns="http://www.w3.org/2000/svg" xmlns:xlink="http://www.w3.org/1999/xlink" width="2048" zoomAndPan="magnify" viewBox="0 0 1536 1535.999932" height="2048" preserveAspectRatio="xMidYMid meet" version="1.0"><defs><g/><clipPath id="e91d595eec"><path d="M 104 493 L 783.769531 493 L 783.769531 1172 L 104 1172 Z M 104 493 " clip-rule="nonzero"/></clipPath></defs><g fill="#2b2b2b" fill-opacity="1"><g transform="translate(748.573026, 955.760355)"><g><path d="M 16.121094 -4.375 C 16.121094 -1.613281 17.734375 0 20.5 0 L 149.941406 0 C 152.707031 0 154.316406 -1.613281 154.316406 -4.375 L 154.316406 -57.8125 C 154.316406 -60.574219 152.707031 -62.1875 149.941406 -62.1875 L 110.324219 -62.1875 C 107.5625 -62.1875 105.949219 -60.574219 105.949219 -57.8125 L 105.949219 -52.746094 C 105.949219 -49.980469 104.335938 -48.367188 101.574219 -48.367188 L 96.507812 -48.367188 C 93.742188 -48.367188 92.128906 -46.757812 92.128906 -43.992188 L 92.128906 -18.195312 C 92.128906 -15.433594 90.519531 -13.820312 87.753906 -13.820312 L 82.6875 -13.820312 C 79.921875 -13.820312 78.308594 -15.433594 78.308594 -18.195312 L 78.308594 -89.597656 C 78.308594 -92.359375 79.921875 -93.972656 82.6875 -93.972656 L 127.371094 -93.972656 C 130.132812 -93.972656 131.746094 -95.585938 131.746094 -98.347656 L 131.746094 -117.234375 C 131.746094 -120 130.132812 -121.613281 127.371094 -121.613281 L 82.6875 -121.613281 C 79.921875 -121.613281 78.308594 -123.222656 78.308594 -125.988281 L 78.308594 -197.386719 C 78.308594 -200.152344 79.921875 -201.765625 82.6875 -201.765625 L 87.753906 -201.765625 C 90.519531 -201.765625 92.128906 -200.152344 92.128906 -197.386719 L 92.128906 -171.59375 C 92.128906 -168.828125 93.742188 -167.214844 96.507812 -167.214844 L 101.574219 -167.214844 C 104.335938 -167.214844 105.949219 -165.605469 105.949219 -162.839844 L 105.949219 -157.773438 C 105.949219 -155.007812 107.5625 -153.394531 110.324219 -153.394531 L 149.941406 -153.394531 C 152.707031 -153.394531 154.316406 -155.007812 154.316406 -157.773438 L 154.316406 -211.207031 C 154.316406 -213.972656 152.707031 -215.585938 149.941406 -215.585938 L 20.5 -215.585938 C 17.734375 -215.585938 16.121094 -213.972656 16.121094 -211.207031 Z M 16.121094 -4.375 "/></g></g></g><g fill="#2b2b2b" fill-opacity="1"><g transform="translate(985.741367, 955.760355)"><g><path d="M 78.308594 -197.386719 C 78.308594 -200.152344 79.921875 -201.765625 82.6875 -201.765625 L 87.753906 -201.765625 C 90.519531 -201.765625 92.128906 -200.152344 92.128906 -197.386719 L 92.128906 -192.320312 C 92.128906 -189.558594 93.742188 -187.945312 96.507812 -187.945312 L 101.574219 -187.945312 C 104.335938 -187.945312 105.949219 -186.332031 105.949219 -183.570312 L 105.949219 -125.066406 C 105.949219 -122.300781 104.335938 -120.691406 101.574219 -120.691406 L 96.507812 -120.691406 C 93.742188 -120.691406 92.128906 -119.078125 92.128906 -116.3125 L 92.128906 -111.246094 C 92.128906 -108.484375 90.519531 -106.871094 87.753906 -106.871094 L 82.6875 -106.871094 C 79.921875 -106.871094 78.308594 -108.484375 78.308594 -111.246094 Z M 16.121094 -4.375 C 16.121094 -1.84375 17.964844 0 20.5 0 L 73.933594 0 C 76.46875 0 78.308594 -1.84375 78.308594 -4.375 L 78.308594 -88.675781 C 78.308594 -91.207031 80.152344 -93.050781 82.6875 -93.050781 L 87.753906 -93.050781 C 90.289062 -93.050781 92.128906 -91.207031 92.128906 -88.675781 L 92.128906 -83.609375 C 92.128906 -81.074219 93.972656 -79.230469 96.507812 -79.230469 L 101.574219 -79.230469 C 104.105469 -79.230469 105.949219 -77.390625 105.949219 -74.855469 L 105.949219 -4.375 C 105.949219 -1.84375 107.792969 0 110.324219 0 L 163.761719 0 C 166.292969 0 168.136719 -1.84375 168.136719 -4.375 L 168.136719 -74.855469 C 168.136719 -77.390625 166.292969 -79.230469 163.761719 -79.230469 L 158.695312 -79.230469 C 156.160156 -79.230469 154.316406 -81.074219 154.316406 -83.609375 L 154.316406 -88.675781 C 154.316406 -91.207031 152.476562 -93.050781 149.941406 -93.050781 L 124.144531 -93.050781 C 121.613281 -93.050781 119.769531 -94.894531 119.769531 -97.425781 L 119.769531 -102.496094 C 119.769531 -105.027344 121.613281 -106.871094 124.144531 -106.871094 L 149.941406 -106.871094 C 152.476562 -106.871094 154.316406 -108.714844 154.316406 -111.246094 L 154.316406 -116.3125 C 154.316406 -118.847656 156.160156 -120.691406 158.695312 -120.691406 L 163.761719 -120.691406 C 166.292969 -120.691406 168.136719 -122.53125 168.136719 -125.066406 L 168.136719 -183.570312 C 168.136719 -186.101562 166.292969 -187.945312 163.761719 -187.945312 L 158.695312 -187.945312 C 156.160156 -187.945312 154.316406 -189.789062 154.316406 -192.320312 L 154.316406 -197.386719 C 154.316406 -199.921875 152.476562 -201.765625 149.941406 -201.765625 L 144.875 -201.765625 C 142.339844 -201.765625 140.5 -203.605469 140.5 -206.140625 L 140.5 -211.207031 C 140.5 -213.742188 138.65625 -215.585938 136.121094 -215.585938 L 20.5 -215.585938 C 17.964844 -215.585938 16.121094 -213.742188 16.121094 -211.207031 Z M 16.121094 -4.375 "/></g></g></g><g fill="#2b2b2b" fill-opacity="1"><g transform="translate(1241.326732, 955.760355)"><g><path d="M 43.761719 -4.375 C 43.761719 -1.84375 45.605469 0 48.136719 0 L 136.121094 0 C 138.65625 0 140.5 -1.84375 140.5 -4.375 L 140.5 -9.441406 C 140.5 -11.976562 142.339844 -13.820312 144.875 -13.820312 L 149.941406 -13.820312 C 152.476562 -13.820312 154.316406 -15.660156 154.316406 -18.195312 L 154.316406 -23.261719 C 154.316406 -25.796875 156.160156 -27.640625 158.695312 -27.640625 L 163.761719 -27.640625 C 166.292969 -27.640625 168.136719 -29.480469 168.136719 -32.015625 L 168.136719 -183.570312 C 168.136719 -186.101562 166.292969 -187.945312 163.761719 -187.945312 L 158.695312 -187.945312 C 156.160156 -187.945312 154.316406 -189.789062 154.316406 -192.320312 L 154.316406 -197.386719 C 154.316406 -199.921875 152.476562 -201.765625 149.941406 -201.765625 L 144.875 -201.765625 C 142.339844 -201.765625 140.5 -203.605469 140.5 -206.140625 L 140.5 -211.207031 C 140.5 -213.742188 138.65625 -215.585938 136.121094 -215.585938 L 48.136719 -215.585938 C 45.605469 -215.585938 43.761719 -213.742188 43.761719 -211.207031 L 43.761719 -206.140625 C 43.761719 -203.605469 41.917969 -201.765625 39.386719 -201.765625 L 34.320312 -201.765625 C 31.785156 -201.765625 29.941406 -199.921875 29.941406 -197.386719 L 29.941406 -192.320312 C 29.941406 -189.789062 28.101562 -187.945312 25.566406 -187.945312 L 20.5 -187.945312 C 17.964844 -187.945312 16.121094 -186.101562 16.121094 -183.570312 L 16.121094 -32.015625 C 16.121094 -29.480469 17.964844 -27.640625 20.5 -27.640625 L 25.566406 -27.640625 C 28.101562 -27.640625 29.941406 -25.796875 29.941406 -23.261719 L 29.941406 -18.195312 C 29.941406 -15.660156 31.785156 -13.820312 34.320312 -13.820312 L 39.386719 -13.820312 C 41.917969 -13.820312 43.761719 -11.976562 43.761719 -9.441406 Z M 78.308594 -197.386719 C 78.308594 -199.921875 80.152344 -201.765625 82.6875 -201.765625 L 87.753906 -201.765625 C 90.289062 -201.765625 92.128906 -199.921875 92.128906 -197.386719 L 92.128906 -192.320312 C 92.128906 -189.789062 93.972656 -187.945312 96.507812 -187.945312 L 101.574219 -187.945312 C 104.105469 -187.945312 105.949219 -186.101562 105.949219 -183.570312 L 105.949219 -32.015625 C 105.949219 -29.480469 104.105469 -27.640625 101.574219 -27.640625 L 96.507812 -27.640625 C 93.972656 -27.640625 92.128906 -25.796875 92.128906 -23.261719 L 92.128906 -18.195312 C 92.128906 -15.660156 90.289062 -13.820312 87.753906 -13.820312 L 82.6875 -13.820312 C 80.152344 -13.820312 78.308594 -15.660156 78.308594 -18.195312 Z M 78.308594 -197.386719 "/></g></g></g><g clip-path="url(#e91d595eec)"><path fill="#2b2b2b" d="M 414.902344 657.199219 L 444.238281 657.199219 C 466.0625 657.199219 466.0625 690.132812 444.238281 690.132812 L 415.261719 690.132812 C 393.4375 690.132812 393.4375 657.199219 414.902344 657.199219 Z M 403.09375 493.242188 L 754.429688 493.242188 C 770.53125 493.242188 783.769531 506.488281 783.769531 522.597656 L 783.769531 595.625 C 783.769531 603.144531 781.261719 609.230469 776.613281 614.957031 L 452.828125 992.625 C 436.367188 1011.597656 449.964844 1041.3125 475.007812 1041.3125 L 754.429688 1041.3125 C 770.53125 1041.3125 783.769531 1054.558594 783.769531 1070.664062 L 783.769531 1142.621094 C 783.769531 1158.730469 770.53125 1171.972656 754.429688 1171.972656 L 291.46875 1171.972656 C 294.332031 1161.59375 286.460938 1151.925781 278.949219 1151.210938 L 217.410156 1151.210938 C 196.300781 1151.210938 194.15625 1118.277344 218.839844 1118.277344 L 366.960938 1118.277344 C 388.785156 1118.277344 388.785156 1085.34375 366.960938 1085.34375 L 177.339844 1085.699219 C 155.515625 1085.699219 155.515625 1052.765625 177.339844 1052.765625 C 207.394531 1052.765625 237.445312 1052.765625 267.5 1052.765625 C 289.324219 1052.765625 289.324219 1019.832031 267.5 1019.832031 L 222.417969 1019.832031 C 200.59375 1019.832031 200.59375 986.898438 222.417969 986.898438 L 311.863281 986.898438 C 331.898438 986.898438 336.550781 953.964844 308.644531 953.964844 L 270.003906 953.964844 C 248.179688 953.964844 248.179688 921.03125 270.003906 921.03125 L 430.644531 921.03125 C 452.46875 921.03125 452.46875 888.097656 430.644531 888.097656 L 320.09375 888.097656 C 298.265625 888.097656 298.265625 855.160156 320.09375 855.160156 C 354.796875 855.160156 389.140625 855.160156 423.847656 855.160156 C 444.957031 855.160156 447.101562 822.226562 422.414062 822.226562 L 394.152344 822.226562 C 372.328125 822.226562 372.328125 789.292969 394.152344 789.292969 C 451.039062 789.292969 507.921875 789.292969 565.167969 789.292969 C 586.992188 789.292969 586.992188 756.359375 565.167969 756.359375 L 403.09375 756.359375 C 381.269531 756.359375 381.269531 723.425781 403.09375 723.425781 L 540.125 723.425781 C 561.949219 723.425781 561.949219 690.492188 540.125 690.492188 C 524.023438 690.492188 507.921875 690.492188 491.824219 690.492188 C 470 690.492188 470 657.558594 491.824219 657.558594 L 595.578125 657.558594 C 617.402344 657.558594 617.402344 624.621094 595.578125 624.621094 L 248.535156 624.265625 C 226.710938 624.265625 226.710938 591.332031 248.535156 591.332031 C 279.664062 591.332031 268.214844 591.332031 299.339844 591.332031 C 321.878906 591.332031 320.808594 556.25 297.195312 558.394531 L 264.636719 558.753906 C 243.527344 558.753906 242.453125 527.609375 263.207031 525.820312 C 319.019531 525.820312 341.917969 525.820312 397.730469 525.820312 C 380.199219 519.019531 384.847656 493.242188 403.09375 493.242188 Z M 120.8125 1118.636719 L 178.054688 1118.636719 C 199.878906 1118.636719 199.878906 1151.570312 178.054688 1151.570312 L 120.8125 1151.570312 C 98.988281 1151.570312 98.988281 1118.636719 120.8125 1118.636719 Z M 154.800781 855.160156 C 165.53125 855.160156 185.925781 852.65625 185.925781 871.628906 C 185.925781 890.601562 165.175781 888.097656 154.800781 888.097656 C 132.976562 888.097656 132.976562 855.160156 154.800781 855.160156 Z M 164.101562 986.898438 C 174.835938 986.898438 195.226562 984.390625 195.226562 1003.367188 C 195.226562 1022.339844 174.476562 1019.832031 164.101562 1019.832031 C 142.277344 1019.832031 142.277344 986.898438 164.101562 986.898438 Z M 215.621094 855.160156 L 272.867188 855.160156 C 294.691406 855.160156 294.691406 888.097656 272.867188 888.097656 L 215.621094 888.097656 C 193.796875 888.097656 193.796875 855.160156 215.621094 855.160156 Z M 341.199219 723.066406 C 351.933594 723.066406 372.328125 720.5625 372.328125 739.535156 C 372.328125 758.507812 351.574219 756 341.199219 756 C 319.375 756 319.375 723.066406 341.199219 723.066406 Z M 197.375 525.105469 C 211.6875 525.105469 234.941406 521.523438 234.941406 541.570312 C 234.941406 561.617188 211.6875 558.039062 197.375 558.039062 C 175.550781 558.394531 175.550781 525.105469 197.375 525.105469 Z M 197.375 525.105469 " fill-opacity="1" fill-rule="nonzero"/></g></svg>