<svg xmlns="http://www.w3.org/2000/svg" xmlns:xlink="http://www.w3.org/1999/xlink" width="2048" zoomAndPan="magnify" viewBox="0 0 1536 1535.999932" height="2048" preserveAspectRatio="xMidYMid meet" version="1.0"><defs><g/><clipPath id="f80ac49358"><path d="M 46 421 L 740.390625 421 L 740.390625 1116 L 46 1116 Z M 46 421 " clip-rule="nonzero"/></clipPath></defs><g fill="#ffffff" fill-opacity="1"><g transform="translate(668.875632, 900.925908)"><g><path d="M 16.472656 -4.472656 C 16.472656 -1.648438 18.117188 0 20.941406 0 L 153.179688 0 C 156.003906 0 157.652344 -1.648438 157.652344 -4.472656 L 157.652344 -59.058594 C 157.652344 -61.882812 156.003906 -63.53125 153.179688 -63.53125 L 112.707031 -63.53125 C 109.886719 -63.53125 108.238281 -61.882812 108.238281 -59.058594 L 108.238281 -53.882812 C 108.238281 -51.058594 106.589844 -49.414062 103.765625 -49.414062 L 98.589844 -49.414062 C 95.765625 -49.414062 94.121094 -47.765625 94.121094 -44.941406 L 94.121094 -18.589844 C 94.121094 -15.765625 92.472656 -14.117188 89.648438 -14.117188 L 84.472656 -14.117188 C 81.648438 -14.117188 80.003906 -15.765625 80.003906 -18.589844 L 80.003906 -91.53125 C 80.003906 -94.355469 81.648438 -96.003906 84.472656 -96.003906 L 130.121094 -96.003906 C 132.945312 -96.003906 134.59375 -97.648438 134.59375 -100.472656 L 134.59375 -119.769531 C 134.59375 -122.589844 132.945312 -124.238281 130.121094 -124.238281 L 84.472656 -124.238281 C 81.648438 -124.238281 80.003906 -125.886719 80.003906 -128.710938 L 80.003906 -201.652344 C 80.003906 -204.476562 81.648438 -206.125 84.472656 -206.125 L 89.648438 -206.125 C 92.472656 -206.125 94.121094 -204.476562 94.121094 -201.652344 L 94.121094 -175.296875 C 94.121094 -172.476562 95.765625 -170.828125 98.589844 -170.828125 L 103.765625 -170.828125 C 106.589844 -170.828125 108.238281 -169.179688 108.238281 -166.355469 L 108.238281 -161.179688 C 108.238281 -158.355469 109.886719 -156.710938 112.707031 -156.710938 L 153.179688 -156.710938 C 156.003906 -156.710938 157.652344 -158.355469 157.652344 -161.179688 L 157.652344 -215.769531 C 157.652344 -218.59375 156.003906 -220.242188 153.179688 -220.242188 L 20.941406 -220.242188 C 18.117188 -220.242188 16.472656 -218.59375 16.472656 -215.769531 Z M 16.472656 -4.472656 "/></g></g></g><g fill="#ffffff" fill-opacity="1"><g transform="translate(911.167508, 900.925908)"><g><path d="M 80.003906 -201.652344 C 80.003906 -204.476562 81.648438 -206.125 84.472656 -206.125 L 89.648438 -206.125 C 92.472656 -206.125 94.121094 -204.476562 94.121094 -201.652344 L 94.121094 -196.476562 C 94.121094 -193.652344 95.765625 -192.003906 98.589844 -192.003906 L 103.765625 -192.003906 C 106.589844 -192.003906 108.238281 -190.359375 108.238281 -187.535156 L 108.238281 -127.769531 C 108.238281 -124.945312 106.589844 -123.296875 103.765625 -123.296875 L 98.589844 -123.296875 C 95.765625 -123.296875 94.121094 -121.648438 94.121094 -118.828125 L 94.121094 -113.648438 C 94.121094 -110.828125 92.472656 -109.179688 89.648438 -109.179688 L 84.472656 -109.179688 C 81.648438 -109.179688 80.003906 -110.828125 80.003906 -113.648438 Z M 16.472656 -4.472656 C 16.472656 -1.882812 18.351562 0 20.941406 0 L 75.53125 0 C 78.121094 0 80.003906 -1.882812 80.003906 -4.472656 L 80.003906 -90.589844 C 80.003906 -93.179688 81.882812 -95.0625 84.472656 -95.0625 L 89.648438 -95.0625 C 92.238281 -95.0625 94.121094 -93.179688 94.121094 -90.589844 L 94.121094 -85.414062 C 94.121094 -82.824219 96.003906 -80.941406 98.589844 -80.941406 L 103.765625 -80.941406 C 106.355469 -80.941406 108.238281 -79.0625 108.238281 -76.472656 L 108.238281 -4.472656 C 108.238281 -1.882812 110.121094 0 112.707031 0 L 167.296875 0 C 169.886719 0 171.769531 -1.882812 171.769531 -4.472656 L 171.769531 -76.472656 C 171.769531 -79.0625 169.886719 -80.941406 167.296875 -80.941406 L 162.121094 -80.941406 C 159.535156 -80.941406 157.652344 -82.824219 157.652344 -85.414062 L 157.652344 -90.589844 C 157.652344 -93.179688 155.769531 -95.0625 153.179688 -95.0625 L 126.828125 -95.0625 C 124.238281 -95.0625 122.355469 -96.945312 122.355469 -99.53125 L 122.355469 -104.707031 C 122.355469 -107.296875 124.238281 -109.179688 126.828125 -109.179688 L 153.179688 -109.179688 C 155.769531 -109.179688 157.652344 -111.0625 157.652344 -113.648438 L 157.652344 -118.828125 C 157.652344 -121.414062 159.535156 -123.296875 162.121094 -123.296875 L 167.296875 -123.296875 C 169.886719 -123.296875 171.769531 -125.179688 171.769531 -127.769531 L 171.769531 -187.535156 C 171.769531 -190.121094 169.886719 -192.003906 167.296875 -192.003906 L 162.121094 -192.003906 C 159.535156 -192.003906 157.652344 -193.886719 157.652344 -196.476562 L 157.652344 -201.652344 C 157.652344 -204.242188 155.769531 -206.125 153.179688 -206.125 L 148.003906 -206.125 C 145.414062 -206.125 143.535156 -208.003906 143.535156 -210.59375 L 143.535156 -215.769531 C 143.535156 -218.359375 141.652344 -220.242188 139.0625 -220.242188 L 20.941406 -220.242188 C 18.351562 -220.242188 16.472656 -218.359375 16.472656 -215.769531 Z M 16.472656 -4.472656 "/></g></g></g><g fill="#ffffff" fill-opacity="1"><g transform="translate(1172.275847, 900.925908)"><g><path d="M 44.707031 -4.472656 C 44.707031 -1.882812 46.589844 0 49.179688 0 L 139.0625 0 C 141.652344 0 143.535156 -1.882812 143.535156 -4.472656 L 143.535156 -9.648438 C 143.535156 -12.234375 145.414062 -14.117188 148.003906 -14.117188 L 153.179688 -14.117188 C 155.769531 -14.117188 157.652344 -16 157.652344 -18.589844 L 157.652344 -23.765625 C 157.652344 -26.355469 159.535156 -28.234375 162.121094 -28.234375 L 167.296875 -28.234375 C 169.886719 -28.234375 171.769531 -30.117188 171.769531 -32.707031 L 171.769531 -187.535156 C 171.769531 -190.121094 169.886719 -192.003906 167.296875 -192.003906 L 162.121094 -192.003906 C 159.535156 -192.003906 157.652344 -193.886719 157.652344 -196.476562 L 157.652344 -201.652344 C 157.652344 -204.242188 155.769531 -206.125 153.179688 -206.125 L 148.003906 -206.125 C 145.414062 -206.125 143.535156 -208.003906 143.535156 -210.59375 L 143.535156 -215.769531 C 143.535156 -218.359375 141.652344 -220.242188 139.0625 -220.242188 L 49.179688 -220.242188 C 46.589844 -220.242188 44.707031 -218.359375 44.707031 -215.769531 L 44.707031 -210.59375 C 44.707031 -208.003906 42.824219 -206.125 40.238281 -206.125 L 35.058594 -206.125 C 32.472656 -206.125 30.589844 -204.242188 30.589844 -201.652344 L 30.589844 -196.476562 C 30.589844 -193.886719 28.707031 -192.003906 26.117188 -192.003906 L 20.941406 -192.003906 C 18.351562 -192.003906 16.472656 -190.121094 16.472656 -187.535156 L 16.472656 -32.707031 C 16.472656 -30.117188 18.351562 -28.234375 20.941406 -28.234375 L 26.117188 -28.234375 C 28.707031 -28.234375 30.589844 -26.355469 30.589844 -23.765625 L 30.589844 -18.589844 C 30.589844 -16 32.472656 -14.117188 35.058594 -14.117188 L 40.238281 -14.117188 C 42.824219 -14.117188 44.707031 -12.234375 44.707031 -9.648438 Z M 80.003906 -201.652344 C 80.003906 -204.242188 81.882812 -206.125 84.472656 -206.125 L 89.648438 -206.125 C 92.238281 -206.125 94.121094 -204.242188 94.121094 -201.652344 L 94.121094 -196.476562 C 94.121094 -193.886719 96.003906 -192.003906 98.589844 -192.003906 L 103.765625 -192.003906 C 106.355469 -192.003906 108.238281 -190.121094 108.238281 -187.535156 L 108.238281 -32.707031 C 108.238281 -30.117188 106.355469 -28.234375 103.765625 -28.234375 L 98.589844 -28.234375 C 96.003906 -28.234375 94.121094 -26.355469 94.121094 -23.765625 L 94.121094 -18.589844 C 94.121094 -16 92.238281 -14.117188 89.648438 -14.117188 L 84.472656 -14.117188 C 81.882812 -14.117188 80.003906 -16 80.003906 -18.589844 Z M 80.003906 -201.652344 "/></g></g></g><g clip-path="url(#f80ac49358)"><path fill="#ffffff" d="M 363.621094 589.222656 L 393.589844 589.222656 C 415.878906 589.222656 415.878906 622.863281 393.589844 622.863281 L 363.988281 622.863281 C 341.695312 622.863281 341.695312 589.222656 363.621094 589.222656 Z M 351.5625 421.757812 L 710.421875 421.757812 C 726.867188 421.757812 740.390625 435.285156 740.390625 451.738281 L 740.390625 526.332031 C 740.390625 534.011719 737.832031 540.226562 733.082031 546.078125 L 402.359375 931.835938 C 385.546875 951.214844 399.433594 981.566406 425.015625 981.566406 L 710.421875 981.566406 C 726.867188 981.566406 740.390625 995.09375 740.390625 1011.546875 L 740.390625 1085.042969 C 740.390625 1101.496094 726.867188 1115.027344 710.421875 1115.027344 L 237.546875 1115.027344 C 240.46875 1104.421875 232.429688 1094.550781 224.753906 1093.820312 L 161.898438 1093.820312 C 140.339844 1093.820312 138.144531 1060.179688 163.363281 1060.179688 L 314.652344 1060.179688 C 336.945312 1060.179688 336.945312 1026.539062 314.652344 1026.539062 L 120.96875 1026.90625 C 98.679688 1026.90625 98.679688 993.265625 120.96875 993.265625 C 151.667969 993.265625 182.363281 993.265625 213.0625 993.265625 C 235.351562 993.265625 235.351562 959.625 213.0625 959.625 L 167.015625 959.625 C 144.722656 959.625 144.722656 925.984375 167.015625 925.984375 L 258.375 925.984375 C 278.839844 925.984375 283.589844 892.347656 255.085938 892.347656 L 215.621094 892.347656 C 193.328125 892.347656 193.328125 858.707031 215.621094 858.707031 L 379.703125 858.707031 C 401.992188 858.707031 401.992188 825.066406 379.703125 825.066406 L 266.78125 825.066406 C 244.488281 825.066406 244.488281 791.425781 266.78125 791.425781 C 302.226562 791.425781 337.308594 791.425781 372.757812 791.425781 C 394.320312 791.425781 396.511719 757.789062 371.296875 757.789062 L 342.425781 757.789062 C 320.136719 757.789062 320.136719 724.148438 342.425781 724.148438 C 400.53125 724.148438 458.636719 724.148438 517.105469 724.148438 C 539.398438 724.148438 539.398438 690.507812 517.105469 690.507812 L 351.5625 690.507812 C 329.269531 690.507812 329.269531 656.867188 351.5625 656.867188 L 491.527344 656.867188 C 513.816406 656.867188 513.816406 623.230469 491.527344 623.230469 C 475.082031 623.230469 458.636719 623.230469 442.191406 623.230469 C 419.898438 623.230469 419.898438 589.589844 442.191406 589.589844 L 548.167969 589.589844 C 570.460938 589.589844 570.460938 555.949219 548.167969 555.949219 L 193.691406 555.585938 C 171.402344 555.585938 171.402344 521.945312 193.691406 521.945312 C 225.484375 521.945312 213.792969 521.945312 245.585938 521.945312 C 268.609375 521.945312 267.511719 486.109375 243.394531 488.304688 L 210.136719 488.671875 C 188.578125 488.671875 187.480469 456.859375 208.675781 455.03125 C 265.683594 455.03125 289.074219 455.03125 346.082031 455.03125 C 328.175781 448.082031 332.925781 421.757812 351.5625 421.757812 Z M 63.230469 1060.542969 L 121.703125 1060.542969 C 143.992188 1060.542969 143.992188 1094.183594 121.703125 1094.183594 L 63.230469 1094.183594 C 40.941406 1094.183594 40.941406 1060.542969 63.230469 1060.542969 Z M 97.949219 791.425781 C 108.910156 791.425781 129.742188 788.867188 129.742188 808.246094 C 129.742188 827.625 108.546875 825.066406 97.949219 825.066406 C 75.65625 825.066406 75.65625 791.425781 97.949219 791.425781 Z M 107.449219 925.984375 C 118.414062 925.984375 139.242188 923.425781 139.242188 942.804688 C 139.242188 962.183594 118.046875 959.625 107.449219 959.625 C 85.15625 959.625 85.15625 925.984375 107.449219 925.984375 Z M 160.074219 791.425781 L 218.542969 791.425781 C 240.835938 791.425781 240.835938 825.066406 218.542969 825.066406 L 160.074219 825.066406 C 137.78125 825.066406 137.78125 791.425781 160.074219 791.425781 Z M 288.339844 656.503906 C 299.304688 656.503906 320.136719 653.941406 320.136719 673.324219 C 320.136719 692.703125 298.9375 690.140625 288.339844 690.140625 C 266.050781 690.140625 266.050781 656.503906 288.339844 656.503906 Z M 141.433594 454.300781 C 156.054688 454.300781 179.804688 450.644531 179.804688 471.117188 C 179.804688 491.59375 156.054688 487.9375 141.433594 487.9375 C 119.144531 488.304688 119.144531 454.300781 141.433594 454.300781 Z M 141.433594 454.300781 " fill-opacity="1" fill-rule="nonzero"/></g></svg>